<svg width="720" height="1280" xmlns="http://www.w3.org/2000/svg" xmlns:xlink="http://www.w3.org/1999/xlink" overflow="hidden"><defs><clipPath id="clip0"><rect x="0" y="0" width="720" height="1280"/></clipPath></defs><g clip-path="url(#clip0)"><rect x="0" y="0" width="720" height="1280" fill="#FFFFFF"/><path d="M461.5 48.4018C497.228 52.1074 497.228 44.6963 532.953 44.6963L532.953 25.4341 461.5 25.4341ZM467.387 25.4341 467.387 22.9369 538.352 22.9369 538.352 42.3199C535.654 42.3199 532.953 42.4541 532.953 42.4541L532.953 25.4341ZM472.92 22.9369 472.92 20.5001 544.5 20.5001 544.5 39.8226C541.426 39.8226 538.352 39.9233 538.352 39.9233L538.352 22.9369Z" fill="#5B9BD5" fill-rule="evenodd"/><path d="M461.5 25.4341 532.953 25.4341 532.953 44.6963C497.228 44.6963 497.228 52.1074 461.5 48.4018ZM467.387 25.4341 467.387 22.9369 538.352 22.9369 538.352 42.3199C535.654 42.3199 532.953 42.4541 532.953 42.4541M472.92 22.9369 472.92 20.5001 544.5 20.5001 544.5 39.8226C541.426 39.8226 538.352 39.9233 538.352 39.9233" stroke="#2F528F" stroke-width="1.33333" stroke-miterlimit="8" fill="none" fill-rule="evenodd"/><text fill="#FFFFFF" font-family="Calibri,Calibri_MSFontService,sans-serif" font-weight="400" font-size="9" transform="translate(469.847 39)">Peer(Follower)</text><path d="M494 56 494 1250.16" stroke="#000000" stroke-width="1.66667" stroke-miterlimit="8" stroke-dasharray="13.3333 5" fill="none" fill-rule="evenodd"/><rect x="491.5" y="69.5001" width="6" height="1148" stroke="#2F528F" stroke-width="1.33333" stroke-miterlimit="8" fill="#E7E6E6"/><path d="M176.5 26.5001 242.5 26.5001 242.5 45.7467C209.5 45.7467 209.5 53.0801 176.5 48.9134Z" stroke="#2F528F" stroke-width="1.33333" stroke-miterlimit="8" fill="#5B9BD5" fill-rule="evenodd"/><text fill="#FFFFFF" font-family="Calibri,Calibri_MSFontService,sans-serif" font-weight="400" font-size="9" transform="translate(185.211 38)">Peer(Leader)</text><path d="M209.5 88.5001 226.67 88.5002" stroke="#4472C4" stroke-width="1.33333" stroke-miterlimit="8" fill="none" fill-rule="evenodd"/><path d="M226.5 88.5001 226.5 106.243" stroke="#4472C4" stroke-width="1.33333" stroke-miterlimit="8" fill="none" fill-rule="evenodd"/><path d="M4.07637e-06-0.666667 15.85-0.66657 15.85 0.666764-4.07637e-06 0.666667ZM8.18592-5.24247 17.1731 0.000105041 8.18585 5.24257C7.86782 5.42809 7.45961 5.32066 7.27409 5.00262 7.08857 4.68459 7.196 4.27638 7.51403 4.09086L15.5141-0.575758 15.5141 0.575947 7.51408-4.09077C7.19605-4.27629 7.08863-4.6845 7.27415-5.00254 7.45967-5.32057 7.86789-5.42799 8.18592-5.24247Z" fill="#4472C4" transform="matrix(-1 0 0 1 226.67 106.5)"/><path d="M497.5 256.5 514.67 256.5" stroke="#4472C4" stroke-width="1.33333" stroke-miterlimit="8" fill="none" fill-rule="evenodd"/><path d="M514.5 256.5 514.5 274.243" stroke="#4472C4" stroke-width="1.33333" stroke-miterlimit="8" fill="none" fill-rule="evenodd"/><path d="M4.07637e-06-0.666667 15.85-0.66657 15.85 0.666764-4.07637e-06 0.666667ZM8.18592-5.24247 17.1731 0.000105041 8.18585 5.24257C7.86782 5.42809 7.45961 5.32066 7.27409 5.00262 7.08857 4.68459 7.196 4.27638 7.51403 4.09086L15.5141-0.575758 15.5141 0.575947 7.51408-4.09077C7.19605-4.27629 7.08863-4.6845 7.27415-5.00254 7.45967-5.32057 7.86789-5.42799 8.18592-5.24247Z" fill="#4472C4" transform="matrix(-1 0 0 1 514.67 273.5)"/><text font-family="DengXian,DengXian_MSFontService,sans-serif" font-weight="700" font-size="6" transform="translate(234.991 96)">启动</text><text font-family="Calibri,Calibri_MSFontService,sans-serif" font-weight="700" font-size="6" transform="translate(246.991 96)">Raft</text><text font-family="DengXian,DengXian_MSFontService,sans-serif" font-weight="700" font-size="6" transform="translate(257.158 96)">服务，</text><text font-family="DengXian,DengXian_MSFontService,sans-serif" font-weight="700" font-size="6" transform="translate(234.991 103)">初始化参数</text><path d="M209.5 198.5 226.67 198.5" stroke="#4472C4" stroke-width="1.33333" stroke-miterlimit="8" fill="none" fill-rule="evenodd"/><path d="M227.5 198.5 227.5 216.243" stroke="#4472C4" stroke-width="1.33333" stroke-miterlimit="8" fill="none" fill-rule="evenodd"/><path d="M4.07637e-06-0.666667 15.85-0.66657 15.85 0.666764-4.07637e-06 0.666667ZM8.18592-5.24247 17.1731 0.000105041 8.18585 5.24257C7.86782 5.42809 7.45961 5.32066 7.27409 5.00262 7.08857 4.68459 7.196 4.27638 7.51403 4.09086L15.5141-0.575758 15.5141 0.575947 7.51408-4.09077C7.19605-4.27629 7.08863-4.6845 7.27415-5.00254 7.45967-5.32057 7.86789-5.42799 8.18592-5.24247Z" fill="#4472C4" transform="matrix(-1 0 0 1 226.67 216.5)"/><text font-family="DengXian,DengXian_MSFontService,sans-serif" font-weight="700" font-size="6" transform="translate(235.303 207)">选举时间超时，</text><text font-family="DengXian,DengXian_MSFontService,sans-serif" font-weight="700" font-size="6" transform="translate(235.303 214)">进入</text><text fill="#FF0000" font-family="DengXian,DengXian_MSFontService,sans-serif" font-weight="700" font-size="6" transform="translate(247.303 214)">选举阶段</text><path d="M209.5 246.833 484.211 246.833 484.211 248.167 209.5 248.167ZM482.877 243.5 490.877 247.5 482.877 251.5Z" fill="#4472C4"/><text font-family="DengXian,DengXian_MSFontService,sans-serif" font-weight="700" font-size="6" transform="translate(332.405 238)">发起</text><text font-family="Calibri,Calibri_MSFontService,sans-serif" font-weight="700" font-size="6" transform="translate(344.405 238)">RPC</text><text font-family="DengXian,DengXian_MSFontService,sans-serif" font-weight="700" font-size="6" transform="translate(354.072 238)">投票请求</text><path d="M2.48745e-07-0.666667 10.6667-0.666663 10.6667 0.666671-2.48745e-07 0.666667ZM14.6667-0.666661 25.3333-0.666657 25.3333 0.666676 14.6667 0.666672ZM29.3333-0.666656 40-0.666652 40 0.666682 29.3333 0.666678ZM44-0.66665 54.6667-0.666646 54.6667 0.666687 44 0.666683ZM58.6667-0.666645 69.3333-0.666641 69.3333 0.666693 58.6667 0.666689ZM73.3333-0.666639 84-0.666635 84 0.666698 73.3333 0.666694ZM88-0.666634 98.6667-0.66663 98.6667 0.666703 88 0.6667ZM102.667-0.666628 113.333-0.666624 113.333 0.666709 102.667 0.666705ZM117.333-0.666623 128-0.666619 128 0.666714 117.333 0.66671ZM132-0.666617 142.667-0.666613 142.667 0.66672 132 0.666716ZM146.667-0.666612 157.333-0.666608 157.333 0.666725 146.667 0.666721ZM161.333-0.666606 172-0.666602 172 0.666731 161.333 0.666727ZM176-0.666601 186.667-0.666597 186.667 0.666736 176 0.666732ZM190.667-0.666596 201.333-0.666592 201.333 0.666742 190.667 0.666738ZM205.333-0.66659 216-0.666586 216 0.666747 205.333 0.666743ZM220-0.666585 230.667-0.666581 230.667 0.666753 220 0.666749ZM234.667-0.666579 245.333-0.666575 245.333 0.666758 234.667 0.666754ZM249.333-0.666574 260-0.66657 260 0.666764 249.333 0.66676ZM264-0.666568 274.667-0.666564 274.667 0.666769 264 0.666765ZM278.667-0.666563 280.056-0.666562 280.056 0.666771 278.667 0.666771ZM272.393-5.24242 281.381 0.00010486 272.393 5.24262C272.075 5.42814 271.667 5.32072 271.482 5.00268 271.296 4.68465 271.403 4.27644 271.722 4.09092L279.722-0.575748 279.722 0.575957 271.722-4.09071C271.403-4.27623 271.296-4.68444 271.482-5.00248 271.667-5.32051 272.075-5.42794 272.393-5.24242Z" fill="#4472C4" transform="matrix(-1 0 0 1 490.877 284.5)"/><text font-family="DengXian,DengXian_MSFontService,sans-serif" font-weight="700" font-size="6" transform="translate(337.739 278)">返回投票结果</text><path d="M209.5 318.5 226.67 318.5" stroke="#4472C4" stroke-width="1.33333" stroke-miterlimit="8" fill="none" fill-rule="evenodd"/><path d="M227.5 318.5 227.5 336.243" stroke="#4472C4" stroke-width="1.33333" stroke-miterlimit="8" fill="none" fill-rule="evenodd"/><path d="M4.07637e-06-0.666667 15.85-0.66657 15.85 0.666764-4.07637e-06 0.666667ZM8.18592-5.24247 17.1731 0.000105041 8.18585 5.24257C7.86782 5.42809 7.45961 5.32066 7.27409 5.00262 7.08857 4.68459 7.196 4.27638 7.51403 4.09086L15.5141-0.575758 15.5141 0.575947 7.51408-4.09077C7.19605-4.27629 7.08863-4.6845 7.27415-5.00254 7.45967-5.32057 7.86789-5.42799 8.18592-5.24247Z" fill="#4472C4" transform="matrix(-1 0 0 1 226.67 335.5)"/><text font-family="DengXian,DengXian_MSFontService,sans-serif" font-weight="700" font-size="6" transform="translate(234.991 322)">获取票数超过总</text><text font-family="Calibri,Calibri_MSFontService,sans-serif" font-weight="700" font-size="6" transform="translate(276.991 322)">peer</text><text font-family="DengXian,DengXian_MSFontService,sans-serif" font-weight="700" font-size="6" transform="translate(288.324 322)">数</text><text font-family="DengXian,DengXian_MSFontService,sans-serif" font-weight="700" font-size="6" transform="translate(234.991 329)">的一半，成为</text><text fill="#FF0000" font-family="Calibri,Calibri_MSFontService,sans-serif" font-weight="700" font-size="6" transform="translate(270.991 329)">Leader</text><text font-family="DengXian,DengXian_MSFontService,sans-serif" font-weight="700" font-size="6" transform="translate(287.824 329)">，</text><text font-family="DengXian,DengXian_MSFontService,sans-serif" font-weight="700" font-size="6" transform="translate(234.991 336)">并</text><text fill="#FF0000" font-family="DengXian,DengXian_MSFontService,sans-serif" font-weight="700" font-size="6" transform="translate(240.991 336)">持久化</text><path d="M210.5 371.833 485.211 371.833 485.211 373.167 210.5 373.167ZM483.877 368.5 491.877 372.5 483.877 376.5Z" fill="#4472C4"/><text font-family="DengXian,DengXian_MSFontService,sans-serif" font-weight="700" font-size="6" transform="translate(335.486 363)">发送心跳包</text><path d="M2.48745e-07-0.666667 10.6667-0.666663 10.6667 0.666671-2.48745e-07 0.666667ZM14.6667-0.666661 25.3333-0.666657 25.3333 0.666676 14.6667 0.666672ZM29.3333-0.666656 40-0.666652 40 0.666682 29.3333 0.666678ZM44-0.66665 54.6667-0.666646 54.6667 0.666687 44 0.666683ZM58.6667-0.666645 69.3333-0.666641 69.3333 0.666693 58.6667 0.666689ZM73.3333-0.666639 84-0.666635 84 0.666698 73.3333 0.666694ZM88-0.666634 98.6667-0.66663 98.6667 0.666703 88 0.6667ZM102.667-0.666628 113.333-0.666624 113.333 0.666709 102.667 0.666705ZM117.333-0.666623 128-0.666619 128 0.666714 117.333 0.66671ZM132-0.666617 142.667-0.666613 142.667 0.66672 132 0.666716ZM146.667-0.666612 157.333-0.666608 157.333 0.666725 146.667 0.666721ZM161.333-0.666606 172-0.666602 172 0.666731 161.333 0.666727ZM176-0.666601 186.667-0.666597 186.667 0.666736 176 0.666732ZM190.667-0.666596 201.333-0.666592 201.333 0.666742 190.667 0.666738ZM205.333-0.66659 216-0.666586 216 0.666747 205.333 0.666743ZM220-0.666585 230.667-0.666581 230.667 0.666753 220 0.666749ZM234.667-0.666579 245.333-0.666575 245.333 0.666758 234.667 0.666754ZM249.333-0.666574 260-0.66657 260 0.666764 249.333 0.66676ZM264-0.666568 274.667-0.666564 274.667 0.666769 264 0.666765ZM278.667-0.666563 280.056-0.666562 280.056 0.666771 278.667 0.666771ZM272.393-5.24242 281.381 0.00010486 272.393 5.24262C272.075 5.42814 271.667 5.32072 271.482 5.00268 271.296 4.68465 271.403 4.27644 271.722 4.09092L279.722-0.575748 279.722 0.575957 271.722-4.09071C271.403-4.27623 271.296-4.68444 271.482-5.00248 271.667-5.32051 272.075-5.42794 272.393-5.24242Z" fill="#4472C4" transform="matrix(-1 0 0 1 489.877 406.5)"/><text fill="#FF0000" font-family="Calibri,Calibri_MSFontService,sans-serif" font-weight="700" font-size="6" transform="translate(330.83 400)">nextIndex</text><text font-family="DengXian,DengXian_MSFontService,sans-serif" font-weight="700" font-size="6" transform="translate(355.664 400)">不变，返回</text><text font-family="Calibri,Calibri_MSFontService,sans-serif" font-weight="700" font-size="6" transform="translate(385.664 400)">true</text><path d="M207 56 207 1250.16" stroke="#000000" stroke-width="1.66667" stroke-miterlimit="8" stroke-dasharray="13.3333 5" fill="none" fill-rule="evenodd"/><rect x="204.5" y="69.5001" width="6" height="1148" stroke="#2F528F" stroke-width="1.33333" stroke-miterlimit="8" fill="#E7E6E6"/><text font-family="DengXian,DengXian_MSFontService,sans-serif" font-weight="700" font-size="6" transform="translate(520.651 263)">若未投票且请求的</text><text font-family="Calibri,Calibri_MSFontService,sans-serif" font-weight="700" font-size="6" transform="translate(568.651 263)">LastTerm</text><text font-family="DengXian,DengXian_MSFontService,sans-serif" font-weight="700" font-size="6" transform="translate(591.484 263)">大于或等于</text><text font-family="DengXian,DengXian_MSFontService,sans-serif" font-weight="700" font-size="6" transform="translate(520.651 270)">自身，或者任期相同但是</text><text font-family="Calibri,Calibri_MSFontService,sans-serif" font-weight="700" font-size="6" transform="translate(586.651 270)">LastIndex</text><text font-family="DengXian,DengXian_MSFontService,sans-serif" font-weight="700" font-size="6" transform="translate(610.317 270)">大</text><text font-family="DengXian,DengXian_MSFontService,sans-serif" font-weight="700" font-size="6" transform="translate(520.651 277)">于或等于自身，则返回投票成功，并</text><text fill="#FF0000" font-family="DengXian,DengXian_MSFontService,sans-serif" font-weight="700" font-size="6" transform="translate(520.651 284)">持久化</text><path d="M497.5 381.5 514.67 381.5" stroke="#4472C4" stroke-width="1.33333" stroke-miterlimit="8" fill="none" fill-rule="evenodd"/><path d="M514.5 381.5 514.5 399.243" stroke="#4472C4" stroke-width="1.33333" stroke-miterlimit="8" fill="none" fill-rule="evenodd"/><path d="M4.07637e-06-0.666667 15.85-0.66657 15.85 0.666764-4.07637e-06 0.666667ZM8.18592-5.24247 17.1731 0.000105041 8.18585 5.24257C7.86782 5.42809 7.45961 5.32066 7.27409 5.00262 7.08857 4.68459 7.196 4.27638 7.51403 4.09086L15.5141-0.575758 15.5141 0.575947 7.51408-4.09077C7.19605-4.27629 7.08863-4.6845 7.27415-5.00254 7.45967-5.32057 7.86789-5.42799 8.18592-5.24247Z" fill="#4472C4" transform="matrix(-1 0 0 1 514.67 398.5)"/><text font-family="DengXian,DengXian_MSFontService,sans-serif" font-weight="700" font-size="6" transform="translate(520.688 388)">若自身的</text><text font-family="Calibri,Calibri_MSFontService,sans-serif" font-weight="700" font-size="6" transform="translate(544.688 388)">Term</text><text font-family="DengXian,DengXian_MSFontService,sans-serif" font-weight="700" font-size="6" transform="translate(557.688 388)">小于心跳包的</text><text font-family="Calibri,Calibri_MSFontService,sans-serif" font-weight="700" font-size="6" transform="translate(593.688 388)">Term</text><text font-family="DengXian,DengXian_MSFontService,sans-serif" font-weight="700" font-size="6" transform="translate(606.688 388)">，</text><text font-family="DengXian,DengXian_MSFontService,sans-serif" font-weight="700" font-size="6" transform="translate(520.688 395)">则成为</text><text fill="#FF0000" font-family="Calibri,Calibri_MSFontService,sans-serif" font-weight="700" font-size="6" transform="translate(538.688 395)">follower</text><text font-family="DengXian,DengXian_MSFontService,sans-serif" font-weight="700" font-size="6" transform="translate(559.521 395)">，并</text><text fill="#FF0000" font-family="DengXian,DengXian_MSFontService,sans-serif" font-weight="700" font-size="6" transform="translate(571.521 395)">持久化</text><text font-family="DengXian,DengXian_MSFontService,sans-serif" font-weight="700" font-size="6" transform="translate(235.934 455)">从客户端接收到新</text><text font-family="DengXian,DengXian_MSFontService,sans-serif" font-weight="700" font-size="6" transform="translate(235.934 462)">数据，通过</text><text font-family="Calibri,Calibri_MSFontService,sans-serif" font-weight="700" font-size="6" transform="translate(265.934 462)">Start()</text><text font-family="Calibri,Calibri_MSFontService,sans-serif" font-weight="700" font-size="6" transform="translate(235.934 469)">api</text><text font-family="DengXian,DengXian_MSFontService,sans-serif" font-weight="700" font-size="6" transform="translate(243.6 469)">函数，添加</text><text font-family="Calibri,Calibri_MSFontService,sans-serif" font-weight="700" font-size="6" transform="translate(273.6 469)">raft</text><text font-family="DengXian,DengXian_MSFontService,sans-serif" font-weight="700" font-size="6" transform="translate(235.934 476)">日志，并</text><text fill="#FF0000" font-family="DengXian,DengXian_MSFontService,sans-serif" font-weight="700" font-size="6" transform="translate(259.934 476)">持久化</text><path d="M210.5 452.5 227.67 452.5" stroke="#4472C4" stroke-width="1.33333" stroke-miterlimit="8" fill="none" fill-rule="evenodd"/><path d="M227.5 452.5 227.5 470.243" stroke="#4472C4" stroke-width="1.33333" stroke-miterlimit="8" fill="none" fill-rule="evenodd"/><path d="M4.07637e-06-0.666667 15.85-0.66657 15.85 0.666764-4.07637e-06 0.666667ZM8.18592-5.24247 17.1731 0.000105041 8.18585 5.24257C7.86782 5.42809 7.45961 5.32066 7.27409 5.00262 7.08857 4.68459 7.196 4.27638 7.51403 4.09086L15.5141-0.575758 15.5141 0.575947 7.51408-4.09077C7.19605-4.27629 7.08863-4.6845 7.27415-5.00254 7.45967-5.32057 7.86789-5.42799 8.18592-5.24247Z" fill="#4472C4" transform="matrix(-1 0 0 1 227.67 470.5)"/><path d="M209.5 507.833 484.211 507.833 484.211 509.167 209.5 509.167ZM482.877 504.5 490.877 508.5 482.877 512.5Z" fill="#4472C4"/><text font-family="DengXian,DengXian_MSFontService,sans-serif" font-weight="700" font-size="6" transform="translate(337.191 495)">发送含新日志的</text><text font-family="Calibri,Calibri_MSFontService,sans-serif" font-weight="700" font-size="6" transform="translate(334.524 502)">AppendEntries</text><text font-family="DengXian,DengXian_MSFontService,sans-serif" font-weight="700" font-size="6" transform="translate(371.024 502)">请求</text><path d="M497.5 530.5 514.67 530.5" stroke="#4472C4" stroke-width="1.33333" stroke-miterlimit="8" fill="none" fill-rule="evenodd"/><path d="M514.5 530.5 514.5 548.243" stroke="#4472C4" stroke-width="1.33333" stroke-miterlimit="8" fill="none" fill-rule="evenodd"/><path d="M4.07637e-06-0.666667 15.85-0.66657 15.85 0.666764-4.07637e-06 0.666667ZM8.18592-5.24247 17.1731 0.000105041 8.18585 5.24257C7.86782 5.42809 7.45961 5.32066 7.27409 5.00262 7.08857 4.68459 7.196 4.27638 7.51403 4.09086L15.5141-0.575758 15.5141 0.575947 7.51408-4.09077C7.19605-4.27629 7.08863-4.6845 7.27415-5.00254 7.45967-5.32057 7.86789-5.42799 8.18592-5.24247Z" fill="#4472C4" transform="matrix(-1 0 0 1 514.67 548.5)"/><text font-family="DengXian,DengXian_MSFontService,sans-serif" font-weight="700" font-size="6" transform="translate(521.592 534)">若</text><text font-family="Calibri,Calibri_MSFontService,sans-serif" font-weight="700" font-size="6" transform="translate(527.592 534)">AppendEntries</text><text font-family="DengXian,DengXian_MSFontService,sans-serif" font-weight="700" font-size="6" transform="translate(564.092 534)">中的</text><text font-family="Calibri,Calibri_MSFontService,sans-serif" font-weight="700" font-size="6" transform="translate(576.092 534)">prevLogTerm</text><text font-family="DengXian,DengXian_MSFontService,sans-serif" font-weight="700" font-size="6" transform="translate(521.592 541)">能够与自身的</text><text font-family="Calibri,Calibri_MSFontService,sans-serif" font-weight="700" font-size="6" transform="translate(557.592 541)">prevLogIndex</text><text font-family="DengXian,DengXian_MSFontService,sans-serif" font-weight="700" font-size="6" transform="translate(591.092 541)">位置的</text><text font-family="DengXian,DengXian_MSFontService,sans-serif" font-weight="700" font-size="6" transform="translate(521.592 548)">日志的</text><text font-family="Calibri,Calibri_MSFontService,sans-serif" font-weight="700" font-size="6" transform="translate(539.592 548)">term</text><text font-family="DengXian,DengXian_MSFontService,sans-serif" font-weight="700" font-size="6" transform="translate(551.592 548)">相同，则</text><text fill="#FF0000" font-family="DengXian,DengXian_MSFontService,sans-serif" font-weight="700" font-size="6" transform="translate(575.592 548)">同步新增日志</text><text font-family="DengXian,DengXian_MSFontService,sans-serif" font-weight="700" font-size="6" transform="translate(611.592 548)">，</text><text font-family="DengXian,DengXian_MSFontService,sans-serif" font-weight="700" font-size="6" transform="translate(521.592 555)">并</text><text fill="#FF0000" font-family="DengXian,DengXian_MSFontService,sans-serif" font-weight="700" font-size="6" transform="translate(527.592 555)">持久化</text><path d="M2.48745e-07-0.666667 10.6667-0.666663 10.6667 0.666671-2.48745e-07 0.666667ZM14.6667-0.666661 25.3333-0.666657 25.3333 0.666676 14.6667 0.666672ZM29.3333-0.666656 40-0.666652 40 0.666682 29.3333 0.666678ZM44-0.66665 54.6667-0.666646 54.6667 0.666687 44 0.666683ZM58.6667-0.666645 69.3333-0.666641 69.3333 0.666693 58.6667 0.666689ZM73.3333-0.666639 84-0.666635 84 0.666698 73.3333 0.666694ZM88-0.666634 98.6667-0.66663 98.6667 0.666703 88 0.6667ZM102.667-0.666628 113.333-0.666624 113.333 0.666709 102.667 0.666705ZM117.333-0.666623 128-0.666619 128 0.666714 117.333 0.66671ZM132-0.666617 142.667-0.666613 142.667 0.66672 132 0.666716ZM146.667-0.666612 157.333-0.666608 157.333 0.666725 146.667 0.666721ZM161.333-0.666606 172-0.666602 172 0.666731 161.333 0.666727ZM176-0.666601 186.667-0.666597 186.667 0.666736 176 0.666732ZM190.667-0.666596 201.333-0.666592 201.333 0.666742 190.667 0.666738ZM205.333-0.66659 216-0.666586 216 0.666747 205.333 0.666743ZM220-0.666585 230.667-0.666581 230.667 0.666753 220 0.666749ZM234.667-0.666579 245.333-0.666575 245.333 0.666758 234.667 0.666754ZM249.333-0.666574 260-0.66657 260 0.666764 249.333 0.66676ZM264-0.666568 274.667-0.666564 274.667 0.666769 264 0.666765ZM278.667-0.666563 280.056-0.666562 280.056 0.666771 278.667 0.666771ZM272.393-5.24242 281.381 0.00010486 272.393 5.24262C272.075 5.42814 271.667 5.32072 271.482 5.00268 271.296 4.68465 271.403 4.27644 271.722 4.09092L279.722-0.575748 279.722 0.575957 271.722-4.09071C271.403-4.27623 271.296-4.68444 271.482-5.00248 271.667-5.32051 272.075-5.42794 272.393-5.24242Z" fill="#4472C4" transform="matrix(-1 0 0 1 490.877 562.5)"/><text font-family="DengXian,DengXian_MSFontService,sans-serif" font-weight="700" font-size="6" transform="translate(335.072 556)">更新</text><text fill="#FF0000" font-family="Calibri,Calibri_MSFontService,sans-serif" font-weight="700" font-size="6" transform="translate(347.072 556)">nextIndex</text><text font-family="DengXian,DengXian_MSFontService,sans-serif" font-weight="700" font-size="6" transform="translate(371.905 556)">，返回</text><text font-family="Calibri,Calibri_MSFontService,sans-serif" font-weight="700" font-size="6" transform="translate(389.905 556)">true</text><text font-family="DengXian,DengXian_MSFontService,sans-serif" font-weight="700" font-size="6" transform="translate(235.747 646)">更新相应</text><text font-family="Calibri,Calibri_MSFontService,sans-serif" font-weight="700" font-size="6" transform="translate(259.747 646)">follower</text><text font-family="DengXian,DengXian_MSFontService,sans-serif" font-weight="700" font-size="6" transform="translate(280.58 646)">的</text><text fill="#FF0000" font-family="Calibri,Calibri_MSFontService,sans-serif" font-weight="700" font-size="6" transform="translate(235.747 653)">nextIndex</text><text font-family="DengXian,DengXian_MSFontService,sans-serif" font-weight="700" font-size="6" transform="translate(260.58 653)">与</text><text fill="#FF0000" font-family="Calibri,Calibri_MSFontService,sans-serif" font-weight="700" font-size="6" transform="translate(266.58 653)">matchIndex</text><path d="M209.5 639.5 226.67 639.5" stroke="#4472C4" stroke-width="1.33333" stroke-miterlimit="8" fill="none" fill-rule="evenodd"/><path d="M227.5 639.5 227.5 657.243" stroke="#4472C4" stroke-width="1.33333" stroke-miterlimit="8" fill="none" fill-rule="evenodd"/><path d="M4.07637e-06-0.666667 15.85-0.66657 15.85 0.666764-4.07637e-06 0.666667ZM8.18592-5.24247 17.1731 0.000105041 8.18585 5.24257C7.86782 5.42809 7.45961 5.32066 7.27409 5.00262 7.08857 4.68459 7.196 4.27638 7.51403 4.09086L15.5141-0.575758 15.5141 0.575947 7.51408-4.09077C7.19605-4.27629 7.08863-4.6845 7.27415-5.00254 7.45967-5.32057 7.86789-5.42799 8.18592-5.24247Z" fill="#4472C4" transform="matrix(-1 0 0 1 226.67 657.5)"/><text font-family="DengXian,DengXian_MSFontService,sans-serif" font-weight="700" font-size="6" transform="translate(237.343 685)">收到日志添加成功的回复</text><text font-family="DengXian,DengXian_MSFontService,sans-serif" font-weight="700" font-size="6" transform="translate(237.343 692)">数量超过一半，则提交日</text><text font-family="DengXian,DengXian_MSFontService,sans-serif" font-weight="700" font-size="6" transform="translate(237.343 699)">志，更新</text><text fill="#FF0000" font-family="Calibri,Calibri_MSFontService,sans-serif" font-weight="700" font-size="6" transform="translate(261.343 699)">commitIndex</text><text font-family="DengXian,DengXian_MSFontService,sans-serif" font-weight="700" font-size="6" transform="translate(294.009 699)">，并</text><text fill="#FF0000" font-family="DengXian,DengXian_MSFontService,sans-serif" font-weight="700" font-size="6" transform="translate(237.343 706)">持久化</text><path d="M210.5 681.5 227.67 681.5" stroke="#4472C4" stroke-width="1.33333" stroke-miterlimit="8" fill="none" fill-rule="evenodd"/><path d="M227.5 681.5 227.5 699.243" stroke="#4472C4" stroke-width="1.33333" stroke-miterlimit="8" fill="none" fill-rule="evenodd"/><path d="M4.07637e-06-0.666667 15.85-0.66657 15.85 0.666764-4.07637e-06 0.666667ZM8.18592-5.24247 17.1731 0.000105041 8.18585 5.24257C7.86782 5.42809 7.45961 5.32066 7.27409 5.00262 7.08857 4.68459 7.196 4.27638 7.51403 4.09086L15.5141-0.575758 15.5141 0.575947 7.51408-4.09077C7.19605-4.27629 7.08863-4.6845 7.27415-5.00254 7.45967-5.32057 7.86789-5.42799 8.18592-5.24247Z" fill="#4472C4" transform="matrix(-1 0 0 1 227.67 699.5)"/><path d="M210.5 142.5 227.67 142.5" stroke="#4472C4" stroke-width="1.33333" stroke-miterlimit="8" fill="none" fill-rule="evenodd"/><path d="M227.5 142.5 227.5 160.243" stroke="#4472C4" stroke-width="1.33333" stroke-miterlimit="8" fill="none" fill-rule="evenodd"/><path d="M4.07637e-06-0.666667 15.85-0.66657 15.85 0.666764-4.07637e-06 0.666667ZM8.18592-5.24247 17.1731 0.000105041 8.18585 5.24257C7.86782 5.42809 7.45961 5.32066 7.27409 5.00262 7.08857 4.68459 7.196 4.27638 7.51403 4.09086L15.5141-0.575758 15.5141 0.575947 7.51408-4.09077C7.19605-4.27629 7.08863-4.6845 7.27415-5.00254 7.45967-5.32057 7.86789-5.42799 8.18592-5.24247Z" fill="#4472C4" transform="matrix(-1 0 0 1 227.67 159.5)"/><text font-family="DengXian,DengXian_MSFontService,sans-serif" font-weight="700" font-size="6" transform="translate(235.747 148)">读取已存储的</text><text fill="#FF0000" font-family="DengXian,DengXian_MSFontService,sans-serif" font-weight="700" font-size="6" transform="translate(271.747 148)">持</text><text fill="#FF0000" font-family="DengXian,DengXian_MSFontService,sans-serif" font-weight="700" font-size="6" transform="translate(235.747 155)">久化</text><text font-family="DengXian,DengXian_MSFontService,sans-serif" font-weight="700" font-size="6" transform="translate(247.747 155)">状态，恢复</text><text fill="#FF0000" font-family="DengXian,DengXian_MSFontService,sans-serif" font-weight="700" font-size="6" transform="translate(235.747 162)">持久化</text><text font-family="DengXian,DengXian_MSFontService,sans-serif" font-weight="700" font-size="6" transform="translate(253.747 162)">时的状态</text><text font-family="DengXian,DengXian_MSFontService,sans-serif" font-weight="700" font-size="6" transform="translate(235.934 594)">若返回结果</text><text font-family="Calibri,Calibri_MSFontService,sans-serif" font-weight="700" font-size="6" transform="translate(265.934 594)">term</text><text font-family="DengXian,DengXian_MSFontService,sans-serif" font-weight="700" font-size="6" transform="translate(277.934 594)">高</text><text font-family="DengXian,DengXian_MSFontService,sans-serif" font-weight="700" font-size="6" transform="translate(235.934 601)">于自身，则更新自</text><text font-family="DengXian,DengXian_MSFontService,sans-serif" font-weight="700" font-size="6" transform="translate(235.934 608)">身</text><text font-family="Calibri,Calibri_MSFontService,sans-serif" font-weight="700" font-size="6" transform="translate(241.934 608)">term</text><text font-family="DengXian,DengXian_MSFontService,sans-serif" font-weight="700" font-size="6" transform="translate(253.934 608)">并成为</text><text fill="#FF0000" font-family="Calibri,Calibri_MSFontService,sans-serif" font-weight="700" font-size="6" transform="translate(235.934 615)">follwer</text><text font-family="DengXian,DengXian_MSFontService,sans-serif" font-weight="700" font-size="6" transform="translate(253.6 615)">，并</text><text fill="#FF0000" font-family="DengXian,DengXian_MSFontService,sans-serif" font-weight="700" font-size="6" transform="translate(265.6 615)">持久化</text><path d="M210.5 592.5 227.67 592.5" stroke="#4472C4" stroke-width="1.33333" stroke-miterlimit="8" fill="none" fill-rule="evenodd"/><path d="M227.5 592.5 227.5 610.243" stroke="#4472C4" stroke-width="1.33333" stroke-miterlimit="8" fill="none" fill-rule="evenodd"/><path d="M4.07637e-06-0.666667 15.85-0.66657 15.85 0.666764-4.07637e-06 0.666667ZM8.18592-5.24247 17.1731 0.000105041 8.18585 5.24257C7.86782 5.42809 7.45961 5.32066 7.27409 5.00262 7.08857 4.68459 7.196 4.27638 7.51403 4.09086L15.5141-0.575758 15.5141 0.575947 7.51408-4.09077C7.19605-4.27629 7.08863-4.6845 7.27415-5.00254 7.45967-5.32057 7.86789-5.42799 8.18592-5.24247Z" fill="#4472C4" transform="matrix(-1 0 0 1 227.67 609.5)"/><text font-family="Calibri,Calibri_MSFontService,sans-serif" font-weight="700" font-size="6" transform="translate(235.747 741)">apply</text><text font-family="DengXian,DengXian_MSFontService,sans-serif" font-weight="700" font-size="6" transform="translate(249.414 741)">已提交的日志</text><path d="M209.5 731.5 226.67 731.5" stroke="#4472C4" stroke-width="1.33333" stroke-miterlimit="8" fill="none" fill-rule="evenodd"/><path d="M227.5 731.5 227.5 749.243" stroke="#4472C4" stroke-width="1.33333" stroke-miterlimit="8" fill="none" fill-rule="evenodd"/><path d="M4.07637e-06-0.666667 15.85-0.66657 15.85 0.666764-4.07637e-06 0.666667ZM8.18592-5.24247 17.1731 0.000105041 8.18585 5.24257C7.86782 5.42809 7.45961 5.32066 7.27409 5.00262 7.08857 4.68459 7.196 4.27638 7.51403 4.09086L15.5141-0.575758 15.5141 0.575947 7.51408-4.09077C7.19605-4.27629 7.08863-4.6845 7.27415-5.00254 7.45967-5.32057 7.86789-5.42799 8.18592-5.24247Z" fill="#4472C4" transform="matrix(-1 0 0 1 226.67 749.5)"/><rect x="302" y="760" width="89" height="30" fill="#FFFFFF"/><text font-family="Calibri,Calibri_MSFontService,sans-serif" font-weight="400" font-size="16" transform="translate(335.38 780)">……</text><text font-family="DengXian,DengXian_MSFontService,sans-serif" font-weight="700" font-size="6" transform="translate(235.568 815)">应用层检测日志数量达</text><text font-family="DengXian,DengXian_MSFontService,sans-serif" font-weight="700" font-size="6" transform="translate(235.568 822)">到</text><text fill="#FF0000" font-family="DengXian,DengXian_MSFontService,sans-serif" font-weight="700" font-size="6" transform="translate(241.568 822)">压缩阈值</text><text font-family="DengXian,DengXian_MSFontService,sans-serif" font-weight="700" font-size="6" transform="translate(265.568 822)">，压缩日志，</text><text font-family="DengXian,DengXian_MSFontService,sans-serif" font-weight="700" font-size="6" transform="translate(235.568 829)">生成快照</text><text fill="#FF0000" font-family="Calibri,Calibri_MSFontService,sans-serif" font-weight="700" font-size="6" transform="translate(259.568 829)">snapshot</text><text font-family="DengXian,DengXian_MSFontService,sans-serif" font-weight="700" font-size="6" transform="translate(281.901 829)">，并</text><text fill="#FF0000" font-family="DengXian,DengXian_MSFontService,sans-serif" font-weight="700" font-size="6" transform="translate(235.568 836)">持久化</text><path d="M210.5 813.5 227.67 813.5" stroke="#4472C4" stroke-width="1.33333" stroke-miterlimit="8" fill="none" fill-rule="evenodd"/><path d="M227.5 813.5 227.5 831.243" stroke="#4472C4" stroke-width="1.33333" stroke-miterlimit="8" fill="none" fill-rule="evenodd"/><path d="M4.07637e-06-0.666667 15.85-0.66657 15.85 0.666764-4.07637e-06 0.666667ZM8.18592-5.24247 17.1731 0.000105041 8.18585 5.24257C7.86782 5.42809 7.45961 5.32066 7.27409 5.00262 7.08857 4.68459 7.196 4.27638 7.51403 4.09086L15.5141-0.575758 15.5141 0.575947 7.51408-4.09077C7.19605-4.27629 7.08863-4.6845 7.27415-5.00254 7.45967-5.32057 7.86789-5.42799 8.18592-5.24247Z" fill="#4472C4" transform="matrix(-1 0 0 1 227.67 831.5)"/><rect x="302" y="844" width="89" height="29" fill="#FFFFFF"/><text font-family="Calibri,Calibri_MSFontService,sans-serif" font-weight="400" font-size="16" transform="translate(335.38 863)">……</text><path d="M496.5 852.5 513.67 852.5" stroke="#4472C4" stroke-width="1.33333" stroke-miterlimit="8" fill="none" fill-rule="evenodd"/><path d="M513.5 852.5 513.5 870.243" stroke="#4472C4" stroke-width="1.33333" stroke-miterlimit="8" fill="none" fill-rule="evenodd"/><path d="M4.07637e-06-0.666667 15.85-0.66657 15.85 0.666764-4.07637e-06 0.666667ZM8.18592-5.24247 17.1731 0.000105041 8.18585 5.24257C7.86782 5.42809 7.45961 5.32066 7.27409 5.00262 7.08857 4.68459 7.196 4.27638 7.51403 4.09086L15.5141-0.575758 15.5141 0.575947 7.51408-4.09077C7.19605-4.27629 7.08863-4.6845 7.27415-5.00254 7.45967-5.32057 7.86789-5.42799 8.18592-5.24247Z" fill="#4472C4" transform="matrix(-1 0 0 1 513.67 870.5)"/><text font-family="DengXian,DengXian_MSFontService,sans-serif" font-weight="700" font-size="6" transform="translate(521.946 857)">服务器断连或崩溃，重新启动并读</text><text font-family="DengXian,DengXian_MSFontService,sans-serif" font-weight="700" font-size="6" transform="translate(521.946 864)">取</text><text fill="#FF0000" font-family="DengXian,DengXian_MSFontService,sans-serif" font-weight="700" font-size="6" transform="translate(527.946 864)">持久化</text><text font-family="DengXian,DengXian_MSFontService,sans-serif" font-weight="700" font-size="6" transform="translate(545.946 864)">状态进行恢复</text><path d="M209.5 916.833 484.211 916.833 484.211 918.167 209.5 918.167ZM482.877 913.5 490.877 917.5 482.877 921.5Z" fill="#4472C4"/><text font-family="DengXian,DengXian_MSFontService,sans-serif" font-weight="700" font-size="6" transform="translate(336.879 904)">发送含新日志的</text><text font-family="Calibri,Calibri_MSFontService,sans-serif" font-weight="700" font-size="6" transform="translate(334.213 911)">AppendEntries</text><text font-family="DengXian,DengXian_MSFontService,sans-serif" font-weight="700" font-size="6" transform="translate(370.713 911)">请求</text><path d="M497.5 939.5 514.67 939.5" stroke="#4472C4" stroke-width="1.33333" stroke-miterlimit="8" fill="none" fill-rule="evenodd"/><path d="M514.5 939.5 514.5 957.243" stroke="#4472C4" stroke-width="1.33333" stroke-miterlimit="8" fill="none" fill-rule="evenodd"/><path d="M4.07637e-06-0.666667 15.85-0.66657 15.85 0.666764-4.07637e-06 0.666667ZM8.18592-5.24247 17.1731 0.000105041 8.18585 5.24257C7.86782 5.42809 7.45961 5.32066 7.27409 5.00262 7.08857 4.68459 7.196 4.27638 7.51403 4.09086L15.5141-0.575758 15.5141 0.575947 7.51408-4.09077C7.19605-4.27629 7.08863-4.6845 7.27415-5.00254 7.45967-5.32057 7.86789-5.42799 8.18592-5.24247Z" fill="#4472C4" transform="matrix(-1 0 0 1 514.67 957.5)"/><text font-family="DengXian,DengXian_MSFontService,sans-serif" font-weight="700" font-size="6" transform="translate(521.28 943)">若</text><text font-family="Calibri,Calibri_MSFontService,sans-serif" font-weight="700" font-size="6" transform="translate(527.28 943)">AppendEntries</text><text font-family="DengXian,DengXian_MSFontService,sans-serif" font-weight="700" font-size="6" transform="translate(563.78 943)">中的</text><text font-family="Calibri,Calibri_MSFontService,sans-serif" font-weight="700" font-size="6" transform="translate(575.78 943)">prevLogTerm</text><text font-family="DengXian,DengXian_MSFontService,sans-serif" font-weight="700" font-size="6" transform="translate(521.28 950)">能够与自身的</text><text font-family="Calibri,Calibri_MSFontService,sans-serif" font-weight="700" font-size="6" transform="translate(557.28 950)">prevLogIndex</text><text font-family="DengXian,DengXian_MSFontService,sans-serif" font-weight="700" font-size="6" transform="translate(590.78 950)">位置的</text><text font-family="DengXian,DengXian_MSFontService,sans-serif" font-weight="700" font-size="6" transform="translate(521.28 957)">日志的</text><text font-family="Calibri,Calibri_MSFontService,sans-serif" font-weight="700" font-size="6" transform="translate(539.28 957)">term</text><text font-family="DengXian,DengXian_MSFontService,sans-serif" font-weight="700" font-size="6" transform="translate(551.28 957)">相同，则</text><text fill="#FF0000" font-family="DengXian,DengXian_MSFontService,sans-serif" font-weight="700" font-size="6" transform="translate(575.28 957)">同步新增日志</text><text font-family="DengXian,DengXian_MSFontService,sans-serif" font-weight="700" font-size="6" transform="translate(611.28 957)">，</text><text font-family="DengXian,DengXian_MSFontService,sans-serif" font-weight="700" font-size="6" transform="translate(521.28 964)">并</text><text fill="#FF0000" font-family="DengXian,DengXian_MSFontService,sans-serif" font-weight="700" font-size="6" transform="translate(527.28 964)">持久化</text><path d="M2.48745e-07-0.666667 10.6667-0.666663 10.6667 0.666671-2.48745e-07 0.666667ZM14.6667-0.666661 25.3333-0.666657 25.3333 0.666676 14.6667 0.666672ZM29.3333-0.666656 40-0.666652 40 0.666682 29.3333 0.666678ZM44-0.66665 54.6667-0.666646 54.6667 0.666687 44 0.666683ZM58.6667-0.666645 69.3333-0.666641 69.3333 0.666693 58.6667 0.666689ZM73.3333-0.666639 84-0.666635 84 0.666698 73.3333 0.666694ZM88-0.666634 98.6667-0.66663 98.6667 0.666703 88 0.6667ZM102.667-0.666628 113.333-0.666624 113.333 0.666709 102.667 0.666705ZM117.333-0.666623 128-0.666619 128 0.666714 117.333 0.66671ZM132-0.666617 142.667-0.666613 142.667 0.66672 132 0.666716ZM146.667-0.666612 157.333-0.666608 157.333 0.666725 146.667 0.666721ZM161.333-0.666606 172-0.666602 172 0.666731 161.333 0.666727ZM176-0.666601 186.667-0.666597 186.667 0.666736 176 0.666732ZM190.667-0.666596 201.333-0.666592 201.333 0.666742 190.667 0.666738ZM205.333-0.66659 216-0.666586 216 0.666747 205.333 0.666743ZM220-0.666585 230.667-0.666581 230.667 0.666753 220 0.666749ZM234.667-0.666579 245.333-0.666575 245.333 0.666758 234.667 0.666754ZM249.333-0.666574 260-0.66657 260 0.666764 249.333 0.66676ZM264-0.666568 274.667-0.666564 274.667 0.666769 264 0.666765ZM278.667-0.666563 280.056-0.666562 280.056 0.666771 278.667 0.666771ZM272.393-5.24242 281.381 0.00010486 272.393 5.24262C272.075 5.42814 271.667 5.32072 271.482 5.00268 271.296 4.68465 271.403 4.27644 271.722 4.09092L279.722-0.575748 279.722 0.575957 271.722-4.09071C271.403-4.27623 271.296-4.68444 271.482-5.00248 271.667-5.32051 272.075-5.42794 272.393-5.24242Z" fill="#4472C4" transform="matrix(-1 0 0 1 490.877 971.5)"/><text font-family="DengXian,DengXian_MSFontService,sans-serif" font-weight="700" font-size="6" transform="translate(335.072 965)">更新</text><text fill="#FF0000" font-family="Calibri,Calibri_MSFontService,sans-serif" font-weight="700" font-size="6" transform="translate(347.072 965)">nextIndex</text><text font-family="DengXian,DengXian_MSFontService,sans-serif" font-weight="700" font-size="6" transform="translate(371.905 965)">，返回</text><text font-family="Calibri,Calibri_MSFontService,sans-serif" font-weight="700" font-size="6" transform="translate(389.905 965)">true</text><path d="M211.5 1039.83 486.211 1039.83 486.211 1041.17 211.5 1041.17ZM484.877 1036.5 492.877 1040.5 484.877 1044.5Z" fill="#4472C4"/><text font-family="DengXian,DengXian_MSFontService,sans-serif" font-weight="700" font-size="6" transform="translate(319.648 1026)">发现</text><text font-family="Calibri,Calibri_MSFontService,sans-serif" font-weight="700" font-size="6" transform="translate(331.648 1026)">nextIndex</text><text font-family="DengXian,DengXian_MSFontService,sans-serif" font-weight="700" font-size="6" transform="translate(356.482 1026)">小于自身的快照对应</text><text font-family="DengXian,DengXian_MSFontService,sans-serif" font-weight="700" font-size="6" transform="translate(319.648 1033)">的下标，发送</text><text fill="#FF0000" font-family="Calibri,Calibri_MSFontService,sans-serif" font-weight="700" font-size="6" transform="translate(355.648 1033)">InstallSnapshot</text><path d="M496.5 1069.5 513.67 1069.5" stroke="#4472C4" stroke-width="1.33333" stroke-miterlimit="8" fill="none" fill-rule="evenodd"/><path d="M514.5 1069.5 514.5 1087.24" stroke="#4472C4" stroke-width="1.33333" stroke-miterlimit="8" fill="none" fill-rule="evenodd"/><path d="M4.07637e-06-0.666667 15.85-0.66657 15.85 0.666764-4.07637e-06 0.666667ZM8.18592-5.24247 17.1731 0.000105041 8.18585 5.24257C7.86782 5.42809 7.45961 5.32066 7.27409 5.00262 7.08857 4.68459 7.196 4.27638 7.51403 4.09086L15.5141-0.575758 15.5141 0.575947 7.51408-4.09077C7.19605-4.27629 7.08863-4.6845 7.27415-5.00254 7.45967-5.32057 7.86789-5.42799 8.18592-5.24247Z" fill="#4472C4" transform="matrix(-1 0 0 1 513.67 1087.5)"/><text fill="#FF0000" font-family="DengXian,DengXian_MSFontService,sans-serif" font-weight="700" font-size="6" transform="translate(520.867 1081)">更新自己的快照</text><path d="M210.5 1116.83 485.211 1116.83 485.211 1118.17 210.5 1118.17ZM483.877 1113.5 491.877 1117.5 483.877 1121.5Z" fill="#4472C4"/><text font-family="DengXian,DengXian_MSFontService,sans-serif" font-weight="700" font-size="6" transform="translate(337.605 1104)">发送含新日志的</text><text font-family="Calibri,Calibri_MSFontService,sans-serif" font-weight="700" font-size="6" transform="translate(334.939 1111)">AppendEntries</text><text font-family="DengXian,DengXian_MSFontService,sans-serif" font-weight="700" font-size="6" transform="translate(371.439 1111)">请求</text><path d="M498.5 1139.5 515.67 1139.5" stroke="#4472C4" stroke-width="1.33333" stroke-miterlimit="8" fill="none" fill-rule="evenodd"/><path d="M515.5 1139.5 515.5 1157.24" stroke="#4472C4" stroke-width="1.33333" stroke-miterlimit="8" fill="none" fill-rule="evenodd"/><path d="M4.07637e-06-0.666667 15.85-0.66657 15.85 0.666764-4.07637e-06 0.666667ZM8.18592-5.24247 17.1731 0.000105041 8.18585 5.24257C7.86782 5.42809 7.45961 5.32066 7.27409 5.00262 7.08857 4.68459 7.196 4.27638 7.51403 4.09086L15.5141-0.575758 15.5141 0.575947 7.51408-4.09077C7.19605-4.27629 7.08863-4.6845 7.27415-5.00254 7.45967-5.32057 7.86789-5.42799 8.18592-5.24247Z" fill="#4472C4" transform="matrix(-1 0 0 1 515.67 1157.5)"/><text font-family="DengXian,DengXian_MSFontService,sans-serif" font-weight="700" font-size="6" transform="translate(523.237 1150)">日志同步</text><path d="M2.48745e-07-0.666667 10.6667-0.666663 10.6667 0.666671-2.48745e-07 0.666667ZM14.6667-0.666661 25.3333-0.666657 25.3333 0.666676 14.6667 0.666672ZM29.3333-0.666656 40-0.666652 40 0.666682 29.3333 0.666678ZM44-0.66665 54.6667-0.666646 54.6667 0.666687 44 0.666683ZM58.6667-0.666645 69.3333-0.666641 69.3333 0.666693 58.6667 0.666689ZM73.3333-0.666639 84-0.666635 84 0.666698 73.3333 0.666694ZM88-0.666634 98.6667-0.66663 98.6667 0.666703 88 0.6667ZM102.667-0.666628 113.333-0.666624 113.333 0.666709 102.667 0.666705ZM117.333-0.666623 128-0.666619 128 0.666714 117.333 0.66671ZM132-0.666617 142.667-0.666613 142.667 0.66672 132 0.666716ZM146.667-0.666612 157.333-0.666608 157.333 0.666725 146.667 0.666721ZM161.333-0.666606 172-0.666602 172 0.666731 161.333 0.666727ZM176-0.666601 186.667-0.666597 186.667 0.666736 176 0.666732ZM190.667-0.666596 201.333-0.666592 201.333 0.666742 190.667 0.666738ZM205.333-0.66659 216-0.666586 216 0.666747 205.333 0.666743ZM220-0.666585 230.667-0.666581 230.667 0.666753 220 0.666749ZM234.667-0.666579 245.333-0.666575 245.333 0.666758 234.667 0.666754ZM249.333-0.666574 260-0.66657 260 0.666764 249.333 0.66676ZM264-0.666568 274.667-0.666564 274.667 0.666769 264 0.666765ZM278.667-0.666563 280.056-0.666562 280.056 0.666771 278.667 0.666771ZM272.393-5.24242 281.381 0.00010486 272.393 5.24262C272.075 5.42814 271.667 5.32072 271.482 5.00268 271.296 4.68465 271.403 4.27644 271.722 4.09092L279.722-0.575748 279.722 0.575957 271.722-4.09071C271.403-4.27623 271.296-4.68444 271.482-5.00248 271.667-5.32051 272.075-5.42794 272.393-5.24242Z" fill="#4472C4" transform="matrix(-1 0 0 1 491.877 1171.5)"/><text font-family="DengXian,DengXian_MSFontService,sans-serif" font-weight="700" font-size="6" transform="translate(335.798 1165)">更新</text><text fill="#FF0000" font-family="Calibri,Calibri_MSFontService,sans-serif" font-weight="700" font-size="6" transform="translate(347.798 1165)">nextIndex</text><text font-family="DengXian,DengXian_MSFontService,sans-serif" font-weight="700" font-size="6" transform="translate(372.631 1165)">，返回</text><text font-family="Calibri,Calibri_MSFontService,sans-serif" font-weight="700" font-size="6" transform="translate(390.631 1165)">true</text><text font-family="Calibri,Calibri_MSFontService,sans-serif" font-weight="400" font-size="24" transform="translate(335.819 29)">Raft</text></g></svg>